<?xml version="1.0" standalone="no"?>
<!DOCTYPE svg PUBLIC "-//W3C//DTD SVG 20010904//EN"
 "http://www.w3.org/TR/2001/REC-SVG-20010904/DTD/svg10.dtd">
<svg version="1.0" xmlns="http://www.w3.org/2000/svg"
 width="25.000000pt" height="25.000000pt" viewBox="0 0 48.000000 48.000000"
 preserveAspectRatio="xMidYMid meet">

<g transform="translate(10.000000,40.000000) scale(0.100000,-0.100000)"
fill="#000000" stroke="none">
<path d="M180 260 c0 -22 5 -40 10 -40 6 0 10 10 10 22 0 20 4 18 40 -17 l40
-39 -37 -39 c-32 -32 -39 -35 -41 -20 -8 41 -22 35 -22 -10 0 -26 4 -47 8 -47
11 0 112 104 112 116 0 11 -102 114 -113 114 -4 0 -7 -18 -7 -40z"/>
<path d="M124 220 c-50 -20 -104 -111 -104 -177 0 -32 11 -28 39 13 13 19 44
47 68 61 48 28 52 33 23 33 -11 0 -39 -17 -62 -37 l-41 -38 7 29 c11 43 36 74
78 93 54 26 47 46 -8 23z"/>
</g>
</svg>
